<?xml version="1.0" encoding="utf-8"?>
<!-- Generator: Adobe Illustrator 16.0.0, SVG Export Plug-In . SVG Version: 6.00 Build 0)  -->
<!DOCTYPE svg PUBLIC "-//W3C//DTD SVG 1.1//EN" "http://www.w3.org/Graphics/SVG/1.1/DTD/svg11.dtd">
<svg version="1.1" id="Layer_1" xmlns="http://www.w3.org/2000/svg" xmlns:xlink="http://www.w3.org/1999/xlink" x="0px" y="0px"
	 width="200px" height="100px" viewBox="0 0 587.317 228.69" enable-background="new 0 0 587.317 228.69"
	 xml:space="preserve">
<g>
	<path fill="#FFFFFF" d="M409.402,106.733c6.069-11.26,11.979-22.6,18.18-33.79c6.021,11.25,12.21,22.42,18,33.8
		C433.522,106.723,421.461,106.733,409.402,106.733"/>
	<path fill="#FFFFFF" d="M472.832,99.133c3.07,2.09,6.47,3.79,10.16,4.47c10.28,1.57,20.69,1.12,31.04,1.82
		c8.66,0.68,17.35,0.48,26.029,0.82c3.021,0.35,6.32,0.6,8.811,2.57c3.38,2.55,3.61,8.37,0.25,11.04c-2.29,1.8-5.37,2.14-8.18,2.2
		c-18.62-0.06-37.25,0.03-55.87-0.04C481.072,114.333,476.742,106.843,472.832,99.133"/>
	<path fill="#040404" d="M282.852,55.543c4.39-4.54,11.03-5.68,17.09-5.74c28.65,0,57.3-0.01,85.951,0.01
		c-0.101,6.63,0.04,13.26-0.091,19.9c-23.95-0.02-47.9,0.01-71.85-0.02c-2.98,0.02-6.29,0.25-8.57,2.41c-2.7,3-2.6,8.53,0.95,10.83
		c4.58,2.13,9.76,1.26,14.65,1.55c12.3,0.91,24.65,0.64,36.96,1.5c6.9,0.57,14.24-0.04,20.581,3.24c2.64,1.26,4.6,3.49,6.449,5.7
		c7.91-14.8,16.07-29.46,24.08-44.2c0.65-1.52,2.631-0.73,3.891-0.95c11.02,0.05,22.04,0.03,33.069,0.01
		c6.79,12.48,13.5,25.01,20.341,37.47c-0.61-10.37-1.41-22.11,5.399-30.79c5.34-6.41,14.4-6.91,22.12-6.67
		c27.24,0.01,54.47,0.01,81.71,0c-0.021,6.62,0.01,13.24-0.01,19.86c-24.57,0.15-49.13-0.03-73.69,0.09
		c-3.109-0.05-6.32,1.24-7.97,3.98c-0.77,2.15-0.82,4.59-0.09,6.76c1.32,2.51,4.239,3.49,6.91,3.71c19.41,0.95,38.89,1,58.29,2.51
		c6.05,0.45,12.319,3.03,15.67,8.33c4.439,7.36,4.529,16.32,3.979,24.65c-0.61,6.44-2.92,13.26-8.33,17.23
		c-5.31,3.78-12.04,4.8-18.42,4.68c-29.22,0-58.43,0.04-87.649-0.02c-3.511-6.53-6.98-13.07-10.471-19.61
		c-17.5,0.05-34.99-0.02-52.479,0.04c-3.5,6.53-6.93,13.09-10.5,19.59c-37.43,0.02-74.87,0.01-112.3,0
		c-0.11-6.52-0.02-13.04-0.06-19.56c24.51-0.06,49.02,0,73.53-0.03c3.57-0.11,7.92-1.19,9.35-4.9c0.34-2.51,0.72-5.64-1.44-7.49
		c-3.04-3.22-7.86-3.15-11.94-3.47c-14.18,0.13-28.3-1.19-42.47-1.34c-7.53-0.6-15.86-0.47-22.05-5.51
		c-6.22-4.84-7.23-13.34-7.42-20.67C276.171,70.593,277.162,61.723,282.852,55.543 M409.402,106.733c12.06,0,24.12-0.01,36.18,0.01
		c-5.79-11.38-11.979-22.55-18-33.8C421.381,84.133,415.471,95.473,409.402,106.733 M472.832,99.133
		c3.91,7.71,8.24,15.2,12.24,22.88c18.62,0.07,37.25-0.02,55.87,0.04c2.81-0.06,5.89-0.4,8.18-2.2c3.36-2.67,3.13-8.49-0.25-11.04
		c-2.49-1.97-5.79-2.22-8.811-2.57c-8.68-0.34-17.369-0.14-26.029-0.82c-10.35-0.7-20.76-0.25-31.04-1.82
		C479.301,102.923,475.902,101.223,472.832,99.133"/>
	<g>
		<linearGradient id="SVGID_1_" gradientUnits="userSpaceOnUse" x1="69.1816" y1="17.6128" x2="69.1816" y2="218.8142">
			<stop  offset="0" style="stop-color:#FF8A10"/>
			<stop  offset="1" style="stop-color:#FE0E0D"/>
		</linearGradient>
		<path fill="url(#SVGID_1_)" d="M107.912,13.293c-12.87,1.17-25.61,4.36-37.21,10.15c-16.07,7.65-29.81,19.7-40.25,34.05
			C59.942,51.533,89.092,37.383,107.912,13.293z"/>
		<linearGradient id="SVGID_2_" gradientUnits="userSpaceOnUse" x1="77.5615" y1="17.6128" x2="77.5615" y2="218.8142">
			<stop  offset="0" style="stop-color:#FF8A10"/>
			<stop  offset="1" style="stop-color:#FE0E0D"/>
		</linearGradient>
		<path fill="url(#SVGID_2_)" d="M106.521,75.263c5.56-4.22,10.41-9.27,15.12-14.4c10.06-11.9,16.95-26.49,18.79-42.04
			c0.59,0.03,1.77,0.08,2.37,0.11c-1.97-4.25-3.48-8.7-5.45-12.95c-4.16,3.43-8.46,6.69-12.78,9.92c0.86,0.34,2.56,1.01,3.41,1.35
			c-11.35,16.75-28.17,28.81-46,37.84l0,0c-2.22,0.31-4.15,1.7-6.24,2.45c-16.55,6.73-34.21,11.23-52.11,11.83
			c-1.34,2.08-2.43,4.3-3.3,6.61c-0.8,1.629-1.607,3.469-2.356,5.512c-0.53,1.448-0.971,2.834-1.34,4.146l-0.001,0
			c-1.065,3.128-2.089,6.716-2.906,10.72c-0.703,3.451-1.142,6.668-1.407,9.583c23.55-0.59,47.24-5.05,68.67-15.1
			C80.992,90.843,100.961,79.483,106.521,75.263z"/>
		<linearGradient id="SVGID_3_" gradientUnits="userSpaceOnUse" x1="89.8867" y1="17.6128" x2="89.8867" y2="218.8142">
			<stop  offset="0" style="stop-color:#FF8A10"/>
			<stop  offset="1" style="stop-color:#FE0E0D"/>
		</linearGradient>
		<path fill="url(#SVGID_3_)" d="M13.545,127.41c-0.011-0.396-0.023-0.791-0.034-1.187c34.829-1.39,69.329-10.75,100.279-26.75
			c0,0,0.001,0,0.001,0c10.81-5.52,20.98-12.28,30.26-20.1c-0.334-0.187-0.668-0.395-1.004-0.605
			c0.336,0.21,0.669,0.418,1.003,0.605c5.81-5.15,11.33-10.68,15.97-16.92l0,0c7.12-9.18,11.84-19.99,14.51-31.26
			c-5.49-4.26-11.82-7.26-18.09-10.17c-1.71,13.78-6.16,27.28-13.9,38.88h0c-4.17,6.53-9.23,12.43-14.68,17.91c0,0,0,0,0,0
			c-7.75,7.41-16.42,13.8-25.62,19.3c-26.95,15.55-57.77,23.59-88.64,26.17c-0.05-0.67-0.17-2-0.22-2.67
			c-2.741,1.359-5.574,2.562-8.14,4.219c1.212,0.774,2.603,1.575,4.174,2.342c1.481,0.723,2.888,1.302,4.177,1.767
			C13.577,128.431,13.561,127.92,13.545,127.41z"/>
		<linearGradient id="SVGID_4_" gradientUnits="userSpaceOnUse" x1="120.7412" y1="17.6128" x2="120.7412" y2="218.8142">
			<stop  offset="0" style="stop-color:#FF8A10"/>
			<stop  offset="1" style="stop-color:#FE0E0D"/>
		</linearGradient>
		<path fill="url(#SVGID_4_)" d="M220.671,114.813c-0.37-8.22-1.37-16.46-3.7-24.37h0c-2.04-7.73-4.87-15.37-8.97-22.25
			c-0.88,8.62-3.41,16.96-6.45,25.04c-2,4.93-4.23,9.77-6.84,14.41c-6.33,11.53-4.33,11.14-24.26,30.84s-55.49,32.87-55.49,32.87
			l-0.24-0.05c-25.7,8.57-53.53,10.19-80.17,5.56c-0.39-0.9-0.77-1.81-1.15-2.71l-5.471,0.939c-2.373,0.464-4.746,0.927-7.119,1.391
			c2.117,1.106,4.283,2.284,6.49,3.539c2.143,1.217,4.203,2.439,6.182,3.656c0.093-0.216,0.187-0.432,0.28-0.648
			c0.167-0.389,0.334-0.778,0.5-1.167c4.355,1.784,8.916,3.393,13.688,4.78c46.917,13.635,91.19-0.897,117.74-13.06c0,0,0,0,0,0
			c8.98-4.79,17.38-10.62,25.22-17.11c6.15-5.2,11.8-10.95,16.99-17.11c4.17-5.19,8.08-10.59,11.49-16.31
			C221.162,120.663,220.452,117.573,220.671,114.813z"/>
		<linearGradient id="SVGID_5_" gradientUnits="userSpaceOnUse" x1="105.502" y1="17.6128" x2="105.5019" y2="218.8142">
			<stop  offset="0" style="stop-color:#FF8A10"/>
			<stop  offset="1" style="stop-color:#FE0E0D"/>
		</linearGradient>
		<path fill="url(#SVGID_5_)" d="M26.922,171.693c29.25,0.81,58.76-4.16,85.92-15.14c22.28-9.09,43.159-22.65,58.679-41.22
			c0,0,0,0,0.001,0c1.954-2.32,3.978-4.904,6.004-7.763c2.052-2.895,3.84-5.695,5.396-8.337h0c2.98-5.76,5.84-11.61,7.75-17.83
			c3.05-9.57,4.47-19.63,3.97-29.68c0.75,0.13,2.26,0.4,3.01,0.53c-1.4-4.79-2.35-9.69-3.54-14.53c-2.96,2.98-6.55,5.29-9.33,8.45
			c1.1,0.46,2.21,0.92,3.33,1.38c-3.57,12.31-10.47,23.43-18.41,33.4c-5.16,6.1-10.85,11.71-16.95,16.86c0,0,0,0,0,0
			c-8.34,6.89-17.54,12.61-26.95,17.899h0c-23.9,12.16-50.26,19.22-76.94,21.47c-11.81,0.79-23.72,1.4-35.51,0.09
			c1.55,6.53,3.11,13.09,5.75,19.29c0,0,0.001-0.001,0.001-0.002c0,0,0,0.002-0.001,0.002
			C21.332,161.773,23.572,167.083,26.922,171.693z"/>
		<linearGradient id="SVGID_6_" gradientUnits="userSpaceOnUse" x1="125.5015" y1="17.6128" x2="125.5015" y2="218.8142">
			<stop  offset="0" style="stop-color:#FF8A10"/>
			<stop  offset="1" style="stop-color:#FE0E0D"/>
		</linearGradient>
		<path fill="url(#SVGID_6_)" d="M199.702,176.623c-12.46,8.34-25.8,15.62-40.27,19.78c-21.86,6.4-44.85,8.96-67.58,7.48
			c-17.06-1.32-34.06-5-49.66-12.16c17.13,17.28,40.49,28.12,64.72,30.24c36.17,3.61,73.45-13.72,94.25-43.51
			c0.71,0.93,1.42,1.87,2.13,2.81c1.86-4.01,3.75-8.02,5.52-12.08c-3.75,1.16-7.49,2.3-11.27,3.33
			C198.441,173.773,199.392,175.062,199.702,176.623z"/>
	</g>
</g>
<g>
	<path fill="#FF570E" d="M290.874,159.625c0,1.953-0.64,3.45-1.919,4.49s-3.1,1.561-5.462,1.561h-1.945v6.998h-3.057v-18.703h5.386
		c2.336,0,4.087,0.478,5.251,1.433S290.874,157.766,290.874,159.625z M281.548,163.105h1.625c1.569,0,2.72-0.272,3.454-0.818
		c0.733-0.546,1.1-1.399,1.1-2.559c0-1.075-0.329-1.876-0.985-2.405c-0.657-0.529-1.681-0.793-3.07-0.793h-2.124V163.105z"/>
	<path fill="#FF570E" d="M297.667,165.203v7.471h-3.057v-18.703h5.283c2.414,0,4.2,0.452,5.36,1.356
		c1.16,0.904,1.74,2.269,1.74,4.094c0,2.328-1.211,3.987-3.633,4.977l5.284,8.277h-3.479l-4.478-7.471H297.667z M297.667,162.67
		h2.124c1.424,0,2.456-0.265,3.096-0.793s0.959-1.313,0.959-2.354c0-1.057-0.345-1.816-1.036-2.277s-1.731-0.691-3.122-0.691h-2.021
		V162.67z"/>
	<path fill="#FF570E" d="M322.959,172.674l-1.868-5.194h-7.151l-1.83,5.194h-3.224l6.998-18.78h3.326l6.998,18.78H322.959z
		 M320.285,164.845l-1.752-5.092c-0.128-0.341-0.305-0.878-0.531-1.612c-0.227-0.733-0.382-1.271-0.467-1.612
		c-0.23,1.049-0.567,2.196-1.011,3.441l-1.688,4.875H320.285z"/>
	<path fill="#FF570E" d="M336.635,156.325c-1.757,0-3.139,0.623-4.145,1.868s-1.509,2.963-1.509,5.155
		c0,2.294,0.484,4.03,1.452,5.207c0.968,1.177,2.369,1.765,4.203,1.765c0.793,0,1.561-0.079,2.303-0.237
		c0.742-0.157,1.514-0.36,2.315-0.607v2.623c-1.467,0.555-3.13,0.832-4.989,0.832c-2.738,0-4.84-0.829-6.307-2.488
		c-1.467-1.659-2.201-4.032-2.201-7.119c0-1.945,0.356-3.646,1.068-5.104c0.712-1.458,1.742-2.576,3.089-3.352
		c1.348-0.776,2.93-1.165,4.746-1.165c1.911,0,3.676,0.401,5.296,1.203l-1.1,2.546c-0.631-0.298-1.298-0.561-2.002-0.787
		S337.411,156.325,336.635,156.325z"/>
	<path fill="#FF570E" d="M356.886,172.674l-1.868-5.194h-7.151l-1.83,5.194h-3.224l6.998-18.78h3.326l6.998,18.78H356.886z
		 M354.212,164.845l-1.752-5.092c-0.128-0.341-0.305-0.878-0.531-1.612c-0.227-0.733-0.382-1.271-0.467-1.612
		c-0.23,1.049-0.567,2.196-1.011,3.441l-1.688,4.875H354.212z"/>
	<path fill="#FF570E" d="M383.687,172.674h-3.544l-5.872-8.469l-1.804,1.471v6.998h-3.057v-18.703h3.057v8.929
		c0.836-1.023,1.667-2.008,2.494-2.955l5.054-5.974h3.479c-3.267,3.838-5.607,6.571-7.022,8.2L383.687,172.674z"/>
	<path fill="#FF570E" d="M392.617,172.674h-3.058v-16.081h-5.501v-2.623h14.06v2.623h-5.501V172.674z"/>
	<path fill="#FF570E" d="M417.588,163.297c0,3.045-0.761,5.412-2.283,7.1c-1.522,1.689-3.678,2.533-6.467,2.533
		c-2.823,0-4.992-0.838-6.506-2.514s-2.271-4.058-2.271-7.145s0.762-5.458,2.283-7.113c1.522-1.655,3.695-2.482,6.519-2.482
		c2.78,0,4.93,0.84,6.447,2.52C416.83,157.877,417.588,160.244,417.588,163.297z M403.311,163.297c0,2.303,0.465,4.049,1.395,5.239
		c0.93,1.19,2.308,1.785,4.133,1.785c1.816,0,3.188-0.588,4.112-1.765c0.926-1.177,1.389-2.93,1.389-5.258
		c0-2.294-0.459-4.034-1.376-5.219c-0.916-1.186-2.283-1.778-4.1-1.778c-1.834,0-3.218,0.593-4.151,1.778
		S403.311,161.003,403.311,163.297z M406.919,152.474v-0.32c0.485-0.597,0.986-1.262,1.503-1.996c0.516-0.733,0.923-1.36,1.222-1.88
		h3.492v0.269c-0.443,0.52-1.106,1.192-1.989,2.015c-0.883,0.823-1.627,1.461-2.232,1.913H406.919z"/>
	<path fill="#FF570E" d="M424.663,165.203v7.471h-3.058v-18.703h5.284c2.413,0,4.2,0.452,5.36,1.356
		c1.159,0.904,1.739,2.269,1.739,4.094c0,2.328-1.211,3.987-3.633,4.977l5.283,8.277h-3.479l-4.478-7.471H424.663z M424.663,162.67
		h2.124c1.424,0,2.456-0.265,3.096-0.793s0.959-1.313,0.959-2.354c0-1.057-0.345-1.816-1.036-2.277
		c-0.69-0.46-1.731-0.691-3.121-0.691h-2.021V162.67z"/>
	<path fill="#FF570E" d="M448.931,172.674h-10.58v-18.703h10.58v2.584h-7.522v5.092h7.049v2.559h-7.049v5.872h7.522V172.674z"/>
	<path fill="#FF570E" d="M450.607,177.894c-0.836,0-1.535-0.107-2.099-0.32v-2.572c0.717,0.179,1.34,0.269,1.868,0.269
		c1.672,0,2.508-1.058,2.508-3.173v-18.127h3.07v18.025c0,1.911-0.454,3.371-1.363,4.382
		C453.683,177.389,452.355,177.894,450.607,177.894z"/>
	<path fill="#FF570E" d="M478.394,167.596c0,1.663-0.602,2.968-1.805,3.915c-1.202,0.947-2.861,1.42-4.976,1.42
		c-2.115,0-3.847-0.328-5.194-0.985v-2.892c0.853,0.401,1.759,0.717,2.719,0.947c0.959,0.23,1.853,0.346,2.68,0.346
		c1.211,0,2.104-0.23,2.681-0.691c0.575-0.46,0.863-1.079,0.863-1.855c0-0.699-0.265-1.292-0.793-1.778
		c-0.529-0.486-1.621-1.062-3.275-1.727c-1.706-0.691-2.908-1.479-3.607-2.367c-0.699-0.887-1.049-1.953-1.049-3.198
		c0-1.561,0.554-2.789,1.663-3.685c1.108-0.896,2.597-1.343,4.465-1.343c1.791,0,3.573,0.393,5.347,1.177l-0.972,2.495
		c-1.663-0.699-3.147-1.049-4.452-1.049c-0.989,0-1.74,0.216-2.252,0.646s-0.768,1-0.768,1.708c0,0.486,0.103,0.902,0.308,1.248
		c0.204,0.345,0.541,0.671,1.011,0.979c0.469,0.307,1.312,0.712,2.532,1.215c1.373,0.571,2.38,1.104,3.02,1.599
		s1.108,1.053,1.407,1.676S478.394,166.751,478.394,167.596z"/>
	<path fill="#FF570E" d="M493.77,172.674h-13.381v-2.124l9.428-13.957h-9.172v-2.623h12.869v2.149l-9.467,13.932h9.723V172.674z"/>
	<path fill="#FF570E" d="M511.745,153.971v12.102c0,1.381-0.297,2.59-0.89,3.626c-0.593,1.037-1.449,1.834-2.571,2.393
		c-1.121,0.559-2.462,0.838-4.023,0.838c-2.319,0-4.123-0.614-5.411-1.842s-1.932-2.917-1.932-5.066v-12.051h3.07v11.833
		c0,1.543,0.358,2.682,1.074,3.416c0.717,0.733,1.817,1.1,3.301,1.1c2.883,0,4.324-1.514,4.324-4.542v-11.808H511.745z"/>
	<path fill="#FF570E" d="M530.806,172.674h-3.544l-5.872-8.469l-1.804,1.471v6.998h-3.058v-18.703h3.058v8.929
		c0.836-1.023,1.667-2.008,2.495-2.955l5.053-5.974h3.479c-3.267,3.838-5.607,6.571-7.022,8.2L530.806,172.674z"/>
	<path fill="#FF570E" d="M544.878,172.674l-1.868-5.194h-7.151l-1.829,5.194h-3.224l6.998-18.78h3.326l6.997,18.78H544.878z
		 M542.205,164.845l-1.753-5.092c-0.128-0.341-0.305-0.878-0.53-1.612c-0.227-0.733-0.382-1.271-0.467-1.612
		c-0.23,1.049-0.567,2.196-1.011,3.441l-1.688,4.875H542.205z"/>
	<path fill="#FF570E" d="M561.381,167.596c0,1.663-0.602,2.968-1.805,3.915c-1.202,0.947-2.861,1.42-4.976,1.42
		c-2.115,0-3.847-0.328-5.194-0.985v-2.892c0.853,0.401,1.759,0.717,2.719,0.947c0.959,0.23,1.853,0.346,2.68,0.346
		c1.211,0,2.104-0.23,2.681-0.691c0.575-0.46,0.863-1.079,0.863-1.855c0-0.699-0.265-1.292-0.793-1.778
		c-0.529-0.486-1.621-1.062-3.275-1.727c-1.706-0.691-2.908-1.479-3.607-2.367c-0.699-0.887-1.049-1.953-1.049-3.198
		c0-1.561,0.554-2.789,1.663-3.685c1.108-0.896,2.597-1.343,4.465-1.343c1.791,0,3.573,0.393,5.347,1.177l-0.972,2.495
		c-1.663-0.699-3.147-1.049-4.452-1.049c-0.989,0-1.74,0.216-2.252,0.646s-0.768,1-0.768,1.708c0,0.486,0.103,0.902,0.308,1.248
		c0.204,0.345,0.541,0.671,1.011,0.979c0.469,0.307,1.312,0.712,2.532,1.215c1.373,0.571,2.38,1.104,3.02,1.599
		s1.108,1.053,1.407,1.676S561.381,166.751,561.381,167.596z"/>
	<path fill="#FF570E" d="M576.758,172.674h-13.381v-2.124l9.428-13.957h-9.172v-2.623h12.869v2.149l-9.467,13.932h9.723V172.674z"/>
</g>
</svg>
